# xmcd
#
# Track frame offsets:
#	150
#	20440
#	37660
#	55429
#	72166
#	87404
#	103706
#	121905
#	138754
#	156330
#	168732
#	184426
#	201891
#	220701
#	235142
#	249337
#	264503
#	279920
#
# Disc length: 3931 seconds
# Revision: 0
# Processed by: cddbd v1.5.2PL0 Copyright (c) Steve Scherf et al.
# Submitted via: dBpowerAMP V12.0
#
DISCID=fc0f5912
DTITLE=Various Artist - Country Radio February 2007
DYEAR=2007
DGENRE=Country
TTITLE0=Kenny Chesney - Beer In Mexico
TTITLE1=Jason McCoy - I'm Not Running Anymore
TTITLE2=Tim McGraw - Last Dollar
TTITLE3=Carrie Underwood - Wasted
TTITLE4=Sugarland - Settlin
TTITLE5=Blake Shelton - Don't Make Me
TTITLE6=Alan Jackson - A Woman's Love
TTITLE7=John Mellencamp - Our Country
TTITLE8=Lonestar - Nothing To Prove
TTITLE9=Blaine Larsen - Spoken Like A Man
TTITLE10=Gil Grand - Somebody's Someone
TTITLE11=Dusty Drake - Say Yes
TTITLE12=Heartland - Built To Last
TTITLE13=Jeff Carson - When You Said You Loved Me
TTITLE14=Eric Church - Guys Like Me
TTITLE15=Povertyneck Hillbillies The - One Night In New Orleans
TTITLE16=Sarah Buxton - That Kind Of Day
TTITLE17=Lee Brice - Overrated
EXTD=
EXTT0=
EXTT1=
EXTT2=
EXTT3=
EXTT4=
EXTT5=
EXTT6=
EXTT7=
EXTT8=
EXTT9=
EXTT10=
EXTT11=
EXTT12=
EXTT13=
EXTT14=
EXTT15=
EXTT16=
EXTT17=
PLAYORDER=
